<svg width="16" height="16" viewBox="0 0 16 16" fill="none" xmlns="http://www.w3.org/2000/svg">
<g clip-path="url(#clip0_22_4)">
<path d="M4.77334 7.31467C5.39135 6.5855 6.21837 6.06369 7.14257 5.81979C8.06676 5.57589 9.04357 5.62167 9.9409 5.95094C10.8382 6.28021 11.6128 6.87708 12.1599 7.66085C12.707 8.44462 13.0003 9.37749 13 10.3333C13 10.5985 13.1054 10.8529 13.2929 11.0404C13.4804 11.228 13.7348 11.3333 14 11.3333C14.2652 11.3333 14.5196 11.228 14.7071 11.0404C14.8946 10.8529 15 10.5985 15 10.3333C15 6.65133 12.0153 3.66667 8.33334 3.66667C7.4011 3.66565 6.47906 3.86069 5.62708 4.23913C4.77511 4.61757 4.01224 5.17094 3.38801 5.86333L3.15667 4.55333C3.1362 4.42194 3.08973 4.29595 3.01997 4.18274C2.95022 4.06952 2.85859 3.97136 2.75043 3.89399C2.64228 3.81661 2.51979 3.76159 2.39011 3.73213C2.26044 3.70268 2.12619 3.69938 1.99523 3.72243C1.86426 3.74549 1.73921 3.79443 1.62739 3.8664C1.51557 3.93836 1.41923 4.03191 1.344 4.14156C1.26877 4.25122 1.21617 4.37477 1.18927 4.505C1.16237 4.63523 1.16171 4.76952 1.18734 4.9L1.88201 8.84C1.92801 9.10067 2.07534 9.33333 2.29334 9.48533C2.56201 9.67333 2.91601 9.71533 3.21667 9.62L6.97934 8.956C7.11073 8.93553 7.23672 8.88905 7.34993 8.8193C7.46315 8.74955 7.56131 8.65791 7.63869 8.54976C7.71606 8.44161 7.77108 8.31911 7.80054 8.18944C7.82999 8.05977 7.83329 7.92552 7.81024 7.79456C7.78719 7.66359 7.73824 7.53854 7.66627 7.42672C7.59431 7.3149 7.50076 7.21856 7.39111 7.14333C7.28145 7.0681 7.1579 7.0155 7.02767 6.9886C6.89744 6.9617 6.76316 6.96104 6.63267 6.98667L4.77401 7.314L4.77334 7.31467Z" fill="#D4E7FD"/>
</g>
<defs>
<clipPath id="clip0_22_4">
<rect width="16" height="16" fill="white"/>
</clipPath>
</defs>
</svg>
